<?xml version="1.0" encoding="UTF-8"?>
<svg xmlns="http://www.w3.org/2000/svg"
     viewBox="0 0 1000 1000"
     width="1000" height="1000">
  <title>院 / scale sample</title>
  <!-- ガイド（薄い枠） -->
  <rect x="0" y="0" width="1000" height="1000" fill="none" stroke="#ddd" stroke-width="1"/>
  <path d="M 138.93 165.26 L 144.43 165.10 L 149.93 164.95 L 155.44 164.80 L 160.94 164.64 L 166.44 164.49 L 171.94 164.34 L 177.45 164.18 L 182.95 164.03 L 188.45 163.87 L 193.96 163.72 L 199.46 163.57 L 204.96 163.41 L 210.46 163.26 L 215.97 163.11 L 221.47 162.95 L 226.97 162.80 L 232.48 162.64 L 237.98 162.49 L 243.48 162.34 L 248.98 162.18 L 254.49 162.03 L 259.99 161.88 L 265.49 161.72 L 271.00 161.57 L 276.50 161.42 L 282.00 161.26 L 287.50 161.11 L 293.01 160.95 L 298.51 160.80 L 304.01 160.65 L 309.51 160.49 L 315.02 160.34 L 320.52 160.19 L 326.02 160.03 L 331.53 159.88 L 337.03 159.72 L 335.77 114.74 L 330.27 114.90 L 324.77 115.05 L 319.26 115.20 L 313.76 115.36 L 308.26 115.51 L 302.76 115.66 L 297.25 115.82 L 291.75 115.97 L 286.25 116.13 L 280.74 116.28 L 275.24 116.43 L 269.74 116.59 L 264.24 116.74 L 258.73 116.89 L 253.23 117.05 L 247.73 117.20 L 242.22 117.36 L 236.72 117.51 L 231.22 117.66 L 225.72 117.82 L 220.21 117.97 L 214.71 118.12 L 209.21 118.28 L 203.70 118.43 L 198.20 118.58 L 192.70 118.74 L 187.20 118.89 L 181.69 119.05 L 176.19 119.20 L 170.69 119.35 L 165.19 119.51 L 159.68 119.66 L 154.18 119.81 L 148.68 119.97 L 143.17 120.12 L 137.67 120.28 L 138.93 165.26 Z M 108.22 140.23 L 115.29 133.83 L 148.27 119.98 L 149.52 164.96 L 108.22 140.23 Z M 312.58 115.39 L 342.19 85.75 L 353.59 36.21 L 372.67 74.70 L 342.63 159.57 L 313.84 160.37 L 312.58 115.39 Z M 290.74 124.89 L 289.65 128.52 L 288.67 132.04 L 287.76 135.62 L 286.91 139.26 L 286.12 142.96 L 285.37 146.72 L 284.67 150.54 L 284.01 154.42 L 283.38 158.35 L 282.79 162.34 L 282.22 166.39 L 281.67 170.49 L 281.15 174.65 L 280.63 178.86 L 280.12 183.12 L 279.62 187.44 L 279.12 191.80 L 278.61 196.22 L 278.09 200.68 L 277.56 205.18 L 277.01 209.73 L 276.44 214.31 L 275.84 218.94 L 275.22 223.60 L 274.56 228.30 L 273.86 233.04 L 273.12 237.80 L 272.34 242.59 L 271.51 247.41 L 270.62 252.26 L 269.68 257.12 L 268.68 262.01 L 267.62 266.91 L 266.50 271.83 L 265.30 276.76 L 264.04 281.71 L 262.70 286.66 L 261.28 291.62 L 259.79 296.58 L 258.22 301.55 L 256.56 306.51 L 254.81 311.48 L 252.98 316.44 L 251.06 321.39 L 249.05 326.34 L 246.95 331.28 L 244.76 336.21 L 242.47 341.13 L 240.09 346.03 L 237.62 350.93 L 235.05 355.80 L 232.39 360.67 L 229.64 365.52 L 226.81 370.35 L 223.89 375.18 L 220.90 380.00 L 220.90 380.00 L 223.92 375.20 L 226.95 370.44 L 229.99 365.73 L 233.05 361.07 L 236.14 356.46 L 239.25 351.91 L 242.39 347.40 L 245.56 342.95 L 248.76 338.55 L 251.98 334.20 L 255.23 329.90 L 258.50 325.65 L 261.80 321.44 L 265.12 317.27 L 268.47 313.15 L 271.83 309.07 L 275.21 305.02 L 278.60 301.01 L 282.01 297.03 L 285.43 293.09 L 288.86 289.17 L 292.29 285.29 L 295.72 281.42 L 299.15 277.58 L 302.58 273.77 L 306.00 269.96 L 309.41 266.18 L 312.81 262.41 L 316.19 258.65 L 319.55 254.90 L 322.88 251.15 L 326.19 247.42 L 329.46 243.68 L 332.70 239.95 L 335.90 236.21 L 339.05 232.47 L 342.16 228.73 L 345.21 224.98 L 348.20 221.23 L 351.14 217.46 L 354.01 213.68 L 356.81 209.89 L 359.53 206.08 L 362.18 202.26 L 364.74 198.43 L 367.22 194.57 L 369.60 190.70 L 371.88 186.81 L 374.07 182.90 L 376.14 178.97 L 378.11 175.01 L 379.96 171.04 L 381.69 167.05 L 383.30 163.04 L 384.77 159.00 L 386.06 155.11 L 290.74 124.89 Z M 199.13 396.00 L 202.73 399.80 L 206.05 403.54 L 209.23 407.34 L 212.26 411.21 L 215.16 415.14 L 217.92 419.12 L 220.54 423.15 L 223.03 427.22 L 225.38 431.33 L 227.61 435.47 L 229.72 439.63 L 231.70 443.82 L 233.56 448.02 L 235.31 452.24 L 236.95 456.46 L 238.48 460.69 L 239.91 464.91 L 241.24 469.13 L 242.47 473.35 L 243.62 477.56 L 244.69 481.75 L 245.68 485.94 L 246.60 490.10 L 247.45 494.25 L 248.24 498.38 L 248.97 502.49 L 249.65 506.58 L 250.30 510.66 L 250.90 514.71 L 251.47 518.75 L 252.02 522.77 L 252.55 526.77 L 253.06 530.76 L 253.57 534.74 L 254.07 538.71 L 254.58 542.68 L 255.11 546.64 L 255.64 550.61 L 256.20 554.58 L 256.82 558.56 L 257.95 562.49 L 259.67 566.39 L 261.93 570.31 L 264.64 574.28 L 267.73 578.33 L 271.11 582.48 L 274.70 586.74 L 278.42 591.14 L 282.19 595.69 L 285.92 600.37 L 289.55 605.20 L 293.00 610.17 L 296.21 615.26 L 299.12 620.46 L 301.67 625.76 L 303.83 631.14 L 305.56 636.57 L 306.84 642.05 L 307.65 647.56 L 308.01 653.07 L 307.93 658.57 L 307.43 664.06 L 306.59 669.54 L 305.50 675.00 L 305.50 675.00 L 306.68 669.55 L 307.95 664.16 L 309.42 658.83 L 311.14 653.57 L 313.14 648.36 L 315.45 643.20 L 318.07 638.06 L 320.98 632.93 L 324.16 627.78 L 327.58 622.61 L 331.20 617.39 L 334.96 612.10 L 338.81 606.74 L 342.68 601.29 L 346.51 595.74 L 350.20 590.11 L 353.70 584.38 L 356.91 578.56 L 359.75 572.67 L 362.14 566.73 L 364.01 560.77 L 365.26 554.80 L 365.83 548.87 L 365.64 543.01 L 364.78 537.24 L 363.71 531.52 L 362.46 525.84 L 361.04 520.21 L 359.45 514.63 L 357.71 509.11 L 355.80 503.64 L 353.75 498.23 L 351.56 492.88 L 349.23 487.60 L 346.77 482.38 L 344.18 477.23 L 341.48 472.15 L 338.66 467.14 L 335.73 462.19 L 332.71 457.31 L 329.59 452.50 L 326.38 447.76 L 323.09 443.08 L 319.72 438.46 L 316.27 433.90 L 312.76 429.40 L 309.18 424.96 L 305.55 420.56 L 301.86 416.22 L 298.12 411.92 L 294.34 407.67 L 290.52 403.45 L 286.66 399.26 L 282.76 395.10 L 278.83 390.96 L 274.88 386.84 L 270.90 382.73 L 266.90 378.63 L 262.88 374.53 L 258.84 370.43 L 254.78 366.31 L 250.71 362.18 L 246.63 358.03 L 242.67 354.00 L 199.13 396.00 Z M 86.30 142.00 L 86.30 161.65 L 86.30 181.30 L 86.30 200.95 L 86.30 220.60 L 86.30 240.25 L 86.30 259.90 L 86.30 279.55 L 86.30 299.20 L 86.30 318.85 L 86.30 338.50 L 86.30 358.15 L 86.30 377.80 L 86.30 397.45 L 86.30 417.10 L 86.30 436.75 L 86.30 456.40 L 86.30 476.05 L 86.30 495.70 L 86.30 515.35 L 86.30 535.00 L 86.30 554.65 L 86.30 574.30 L 86.30 593.95 L 86.30 613.60 L 86.30 633.25 L 86.30 652.90 L 86.30 672.55 L 86.30 692.20 L 86.30 711.85 L 86.30 731.50 L 86.30 751.15 L 86.30 770.80 L 86.30 790.45 L 86.30 810.10 L 86.30 829.75 L 86.30 849.40 L 86.30 869.05 L 86.30 888.70 L 86.30 908.35 L 86.30 928.00 L 186.30 928.00 L 186.30 908.35 L 186.30 888.70 L 186.30 869.05 L 186.30 849.40 L 186.30 829.75 L 186.30 810.10 L 186.30 790.45 L 186.30 770.80 L 186.30 751.15 L 186.30 731.50 L 186.30 711.85 L 186.30 692.20 L 186.30 672.55 L 186.30 652.90 L 186.30 633.25 L 186.30 613.60 L 186.30 593.95 L 186.30 574.30 L 186.30 554.65 L 186.30 535.00 L 186.30 515.35 L 186.30 495.70 L 186.30 476.05 L 186.30 456.40 L 186.30 436.75 L 186.30 417.10 L 186.30 397.45 L 186.30 377.80 L 186.30 358.15 L 186.30 338.50 L 186.30 318.85 L 186.30 299.20 L 186.30 279.55 L 186.30 259.90 L 186.30 240.25 L 186.30 220.60 L 186.30 200.95 L 186.30 181.30 L 186.30 161.65 L 186.30 142.00 L 86.30 142.00 Z M 128.80 133.00 L 86.30 144.20 L 86.30 170.80 L 186.30 159.60 L 181.30 137.20 L 128.80 133.00 Z M 587.58 80.00 L 587.58 83.39 L 587.58 86.78 L 587.58 90.16 L 587.58 93.55 L 587.58 96.94 L 587.58 100.33 L 587.58 103.71 L 587.58 107.10 L 587.58 110.49 L 587.58 113.88 L 587.58 117.26 L 587.58 120.65 L 587.58 124.04 L 587.58 127.42 L 587.58 130.81 L 587.58 134.20 L 587.58 137.59 L 587.58 140.97 L 587.58 144.36 L 587.58 147.75 L 587.58 151.14 L 587.58 154.53 L 587.58 157.91 L 587.58 161.30 L 587.58 164.69 L 587.58 168.07 L 587.58 171.46 L 587.58 174.85 L 587.58 178.24 L 587.58 181.62 L 587.58 185.01 L 587.58 188.40 L 587.58 191.79 L 587.58 195.18 L 587.58 198.56 L 587.58 201.95 L 587.58 205.34 L 587.58 208.72 L 587.58 212.11 L 587.58 215.50 L 687.58 215.50 L 687.58 212.11 L 687.58 208.72 L 687.58 205.34 L 687.58 201.95 L 687.58 198.56 L 687.58 195.18 L 687.58 191.79 L 687.58 188.40 L 687.58 185.01 L 687.58 181.62 L 687.58 178.24 L 687.58 174.85 L 687.58 171.46 L 687.58 168.07 L 687.58 164.69 L 687.58 161.30 L 687.58 157.91 L 687.58 154.53 L 687.58 151.14 L 687.58 147.75 L 687.58 144.36 L 687.58 140.97 L 687.58 137.59 L 687.58 134.20 L 687.58 130.81 L 687.58 127.42 L 687.58 124.04 L 687.58 120.65 L 687.58 117.26 L 687.58 113.88 L 687.58 110.49 L 687.58 107.10 L 687.58 103.71 L 687.58 100.33 L 687.58 96.94 L 687.58 93.55 L 687.58 90.16 L 687.58 86.78 L 687.58 83.39 L 687.58 80.00 L 587.58 80.00 Z M 440.12 161.19 L 448.82 166.05 L 447.61 171.25 L 445.73 176.38 L 443.08 181.38 L 439.68 186.19 L 435.64 190.79 L 431.14 195.17 L 426.49 199.37 L 422.03 203.47 L 418.19 207.60 L 414.83 211.79 L 411.56 215.97 L 408.39 220.15 L 405.32 224.35 L 402.39 228.58 L 399.59 232.87 L 396.94 237.23 L 394.44 241.66 L 392.11 246.18 L 389.93 250.80 L 387.92 255.52 L 386.08 260.34 L 384.39 265.28 L 382.87 270.33 L 381.50 275.49 L 380.27 280.75 L 379.19 286.12 L 378.24 291.58 L 377.41 297.12 L 376.70 302.74 L 376.67 308.77 L 377.49 315.33 L 378.61 322.09 L 379.59 328.77 L 380.08 335.12 L 379.87 340.99 L 378.89 346.30 L 377.16 351.04 L 374.88 355.30 L 372.30 359.25 L 372.30 359.25 L 374.99 355.37 L 378.04 351.62 L 381.73 348.16 L 386.20 345.10 L 391.50 342.43 L 397.52 340.08 L 404.05 337.90 L 410.73 335.65 L 417.09 333.06 L 422.59 329.80 L 427.38 326.00 L 432.01 322.00 L 436.47 317.79 L 440.73 313.38 L 444.77 308.76 L 448.58 303.94 L 452.13 298.92 L 455.42 293.70 L 458.41 288.29 L 461.11 282.69 L 463.50 276.93 L 465.57 271.01 L 467.31 264.95 L 468.71 258.76 L 469.77 252.47 L 470.49 246.09 L 470.87 239.64 L 470.91 233.14 L 470.60 226.63 L 469.97 220.12 L 468.58 213.56 L 466.31 206.96 L 463.54 200.46 L 460.65 194.17 L 457.89 188.12 L 455.45 182.31 L 453.44 176.72 L 451.84 171.30 L 450.56 166.00 L 458.82 160.41 L 440.12 161.19 Z M 442.45 249.98 L 454.26 249.65 L 466.08 249.32 L 477.89 248.99 L 489.70 248.66 L 501.51 248.33 L 513.33 248.00 L 525.14 247.67 L 536.95 247.34 L 548.77 247.01 L 560.58 246.68 L 572.39 246.35 L 584.21 246.02 L 596.02 245.69 L 607.83 245.36 L 619.65 245.03 L 631.46 244.70 L 643.27 244.37 L 655.08 244.04 L 666.90 243.71 L 678.71 243.38 L 690.52 243.05 L 702.34 242.72 L 714.15 242.39 L 725.96 242.06 L 737.78 241.73 L 749.59 241.40 L 761.40 241.07 L 773.22 240.74 L 785.03 240.41 L 796.84 240.08 L 808.65 239.75 L 820.47 239.42 L 832.28 239.09 L 844.09 238.76 L 855.91 238.43 L 867.72 238.10 L 866.46 193.12 L 854.65 193.45 L 842.84 193.78 L 831.02 194.11 L 819.21 194.44 L 807.40 194.77 L 795.59 195.10 L 783.77 195.43 L 771.96 195.76 L 760.15 196.09 L 748.33 196.42 L 736.52 196.75 L 724.71 197.08 L 712.89 197.41 L 701.08 197.74 L 689.27 198.07 L 677.45 198.40 L 665.64 198.73 L 653.83 199.06 L 642.02 199.39 L 630.20 199.72 L 618.39 200.05 L 606.58 200.38 L 594.76 200.71 L 582.95 201.04 L 571.14 201.37 L 559.32 201.70 L 547.51 202.03 L 535.70 202.36 L 523.88 202.69 L 512.07 203.02 L 500.26 203.35 L 488.45 203.68 L 476.63 204.01 L 464.82 204.34 L 453.01 204.67 L 441.19 205.00 L 442.45 249.98 Z M 843.27 193.77 L 872.88 164.13 L 884.28 114.59 L 903.36 153.07 L 873.32 237.95 L 844.53 238.75 L 843.27 193.77 Z M 859.75 222.17 L 868.44 224.89 L 867.23 228.16 L 865.35 231.30 L 862.73 234.22 L 859.38 236.86 L 855.42 239.16 L 851.06 241.15 L 846.58 242.88 L 842.35 244.50 L 838.76 246.19 L 835.66 248.00 L 832.66 249.82 L 829.78 251.67 L 827.01 253.58 L 824.36 255.57 L 821.85 257.67 L 819.47 259.89 L 817.22 262.24 L 815.12 264.73 L 813.15 267.39 L 811.31 270.20 L 809.60 273.19 L 808.02 276.34 L 806.55 279.66 L 805.21 283.15 L 803.97 286.80 L 802.83 290.60 L 801.78 294.56 L 800.81 298.64 L 799.91 302.85 L 799.56 307.64 L 799.89 313.16 L 800.44 318.99 L 800.81 324.72 L 800.76 330.06 L 800.10 334.79 L 798.79 338.80 L 796.88 342.09 L 794.51 344.78 L 791.92 347.10 L 791.92 347.10 L 794.60 344.88 L 797.58 342.88 L 801.07 341.32 L 805.22 340.33 L 810.07 339.92 L 815.54 339.98 L 821.47 340.30 L 827.57 340.58 L 833.45 340.44 L 838.63 339.44 L 843.23 337.76 L 847.72 335.85 L 852.08 333.71 L 856.28 331.33 L 860.31 328.70 L 864.14 325.83 L 867.75 322.72 L 871.14 319.37 L 874.28 315.78 L 877.15 311.97 L 879.74 307.94 L 882.03 303.71 L 884.03 299.29 L 885.70 294.70 L 887.05 289.95 L 888.06 285.08 L 888.73 280.11 L 889.05 275.07 L 889.02 269.98 L 888.65 264.88 L 887.51 259.67 L 885.46 254.38 L 882.88 249.23 L 880.11 244.36 L 877.44 239.83 L 875.05 235.67 L 873.06 231.82 L 871.46 228.23 L 870.18 224.83 L 878.43 220.93 L 859.75 222.17 Z M 452.18 402.99 L 463.12 402.69 L 474.06 402.38 L 485.00 402.08 L 495.94 401.77 L 506.88 401.46 L 517.82 401.16 L 528.76 400.85 L 539.70 400.55 L 550.64 400.24 L 561.58 399.94 L 572.52 399.63 L 583.46 399.32 L 594.40 399.02 L 605.34 398.71 L 616.28 398.41 L 627.22 398.10 L 638.16 397.80 L 649.10 397.49 L 660.04 397.19 L 670.98 396.88 L 681.92 396.57 L 692.86 396.27 L 703.80 395.96 L 714.75 395.66 L 725.69 395.35 L 736.63 395.05 L 747.57 394.74 L 758.51 394.44 L 769.45 394.13 L 780.39 393.82 L 791.33 393.52 L 802.27 393.21 L 813.21 392.91 L 824.15 392.60 L 835.09 392.30 L 846.03 391.99 L 844.77 347.01 L 833.83 347.31 L 822.89 347.62 L 811.95 347.92 L 801.01 348.23 L 790.07 348.54 L 779.13 348.84 L 768.19 349.15 L 757.25 349.45 L 746.31 349.76 L 735.37 350.06 L 724.43 350.37 L 713.49 350.68 L 702.55 350.98 L 691.61 351.29 L 680.67 351.59 L 669.73 351.90 L 658.79 352.20 L 647.85 352.51 L 636.91 352.81 L 625.97 353.12 L 615.03 353.43 L 604.09 353.73 L 593.15 354.04 L 582.20 354.34 L 571.26 354.65 L 560.32 354.95 L 549.38 355.26 L 538.44 355.56 L 527.50 355.87 L 516.56 356.18 L 505.62 356.48 L 494.68 356.79 L 483.74 357.09 L 472.80 357.40 L 461.86 357.70 L 450.92 358.01 L 452.18 402.99 Z M 421.47 377.96 L 428.54 371.57 L 461.52 357.71 L 462.77 402.70 L 421.47 377.96 Z M 821.58 347.66 L 851.19 318.02 L 862.59 268.48 L 881.67 306.96 L 851.63 391.83 L 822.84 392.64 L 821.58 347.66 Z M 370.43 555.05 L 385.46 554.63 L 400.48 554.21 L 415.51 553.79 L 430.54 553.37 L 445.57 552.95 L 460.59 552.53 L 475.62 552.11 L 490.65 551.69 L 505.68 551.27 L 520.71 550.85 L 535.73 550.43 L 550.76 550.01 L 565.79 549.59 L 580.82 549.17 L 595.84 548.75 L 610.87 548.33 L 625.90 547.91 L 640.93 547.49 L 655.96 547.07 L 670.98 546.65 L 686.01 546.23 L 701.04 545.81 L 716.07 545.39 L 731.10 544.97 L 746.12 544.55 L 761.15 544.13 L 776.18 543.71 L 791.21 543.29 L 806.23 542.87 L 821.26 542.45 L 836.29 542.03 L 851.32 541.61 L 866.35 541.19 L 881.37 540.77 L 896.40 540.36 L 911.43 539.94 L 910.17 494.95 L 895.14 495.37 L 880.12 495.79 L 865.09 496.21 L 850.06 496.63 L 835.03 497.05 L 820.01 497.47 L 804.98 497.89 L 789.95 498.31 L 774.92 498.73 L 759.89 499.15 L 744.87 499.57 L 729.84 499.99 L 714.81 500.41 L 699.78 500.83 L 684.76 501.25 L 669.73 501.67 L 654.70 502.09 L 639.67 502.51 L 624.64 502.93 L 609.62 503.35 L 594.59 503.77 L 579.56 504.19 L 564.53 504.61 L 549.50 505.03 L 534.48 505.45 L 519.45 505.87 L 504.42 506.29 L 489.39 506.71 L 474.37 507.13 L 459.34 507.55 L 444.31 507.97 L 429.28 508.39 L 414.25 508.81 L 399.23 509.23 L 384.20 509.64 L 369.17 510.06 L 370.43 555.05 Z M 339.72 530.02 L 346.79 523.62 L 379.77 509.77 L 381.02 554.75 L 339.72 530.02 Z M 886.98 495.60 L 916.59 465.96 L 927.99 416.42 L 947.07 454.91 L 917.03 539.78 L 888.24 540.58 L 886.98 495.60 Z M 486.77 523.69 L 486.55 533.93 L 486.30 543.64 L 485.99 553.23 L 485.63 562.69 L 485.20 572.04 L 484.70 581.28 L 484.14 590.41 L 483.50 599.45 L 482.78 608.39 L 481.98 617.23 L 481.08 626.00 L 480.09 634.68 L 479.00 643.28 L 477.79 651.82 L 476.48 660.28 L 475.04 668.68 L 473.47 677.01 L 471.77 685.28 L 469.93 693.49 L 467.94 701.65 L 465.80 709.75 L 463.49 717.79 L 461.02 725.78 L 458.37 733.72 L 455.54 741.59 L 452.52 749.41 L 449.30 757.16 L 445.89 764.86 L 442.27 772.48 L 438.44 780.04 L 434.39 787.52 L 430.13 794.92 L 425.64 802.24 L 420.92 809.47 L 415.97 816.61 L 410.79 823.64 L 405.38 830.57 L 399.73 837.39 L 393.85 844.09 L 387.72 850.67 L 381.36 857.12 L 374.76 863.43 L 367.93 869.60 L 360.87 875.62 L 353.57 881.49 L 346.04 887.21 L 338.28 892.76 L 330.30 898.15 L 322.10 903.36 L 313.68 908.41 L 305.04 913.28 L 296.20 917.97 L 287.14 922.49 L 277.89 926.83 L 268.44 931.00 L 258.80 935.00 L 258.80 935.00 L 268.45 931.03 L 277.96 926.97 L 287.32 922.85 L 296.54 918.66 L 305.62 914.41 L 314.58 910.09 L 323.41 905.70 L 332.11 901.24 L 340.70 896.71 L 349.17 892.10 L 357.53 887.42 L 365.78 882.64 L 373.92 877.78 L 381.95 872.82 L 389.88 867.76 L 397.71 862.59 L 405.43 857.32 L 413.04 851.92 L 420.56 846.40 L 427.97 840.74 L 435.27 834.95 L 442.46 829.02 L 449.55 822.94 L 456.52 816.71 L 463.37 810.32 L 470.10 803.76 L 476.71 797.04 L 483.19 790.14 L 489.53 783.07 L 495.73 775.82 L 501.79 768.39 L 507.69 760.77 L 513.43 752.97 L 519.01 744.99 L 524.42 736.81 L 529.65 728.45 L 534.69 719.90 L 539.54 711.17 L 544.19 702.26 L 548.63 693.16 L 552.86 683.89 L 556.88 674.43 L 560.66 664.81 L 564.21 655.01 L 567.53 645.05 L 570.60 634.93 L 573.42 624.66 L 575.98 614.23 L 578.29 603.65 L 580.33 592.93 L 582.10 582.07 L 583.59 571.08 L 584.81 559.97 L 585.74 548.73 L 586.39 537.37 L 586.73 526.31 L 486.77 523.69 Z M 639.35 527.00 L 639.35 535.90 L 639.35 544.80 L 639.35 553.70 L 639.35 562.60 L 639.35 571.50 L 639.35 580.40 L 639.35 589.30 L 639.35 598.20 L 639.35 607.10 L 639.35 616.00 L 639.35 624.90 L 639.35 633.80 L 639.35 642.70 L 639.35 651.60 L 639.35 660.50 L 639.35 669.40 L 639.35 678.30 L 639.35 687.20 L 639.35 696.10 L 639.35 705.00 L 639.35 713.90 L 639.35 722.80 L 639.35 731.70 L 639.35 740.60 L 639.35 749.50 L 639.35 758.40 L 639.35 767.30 L 639.35 776.20 L 639.35 785.10 L 639.35 794.00 L 639.35 802.90 L 639.35 811.80 L 639.35 820.70 L 639.35 829.60 L 639.35 838.50 L 639.35 847.40 L 639.35 856.30 L 639.35 865.20 L 639.35 874.10 L 639.35 883.00 L 739.35 883.00 L 739.35 874.10 L 739.35 865.20 L 739.35 856.30 L 739.35 847.40 L 739.35 838.50 L 739.35 829.60 L 739.35 820.70 L 739.35 811.80 L 739.35 802.90 L 739.35 794.00 L 739.35 785.10 L 739.35 776.20 L 739.35 767.30 L 739.35 758.40 L 739.35 749.50 L 739.35 740.60 L 739.35 731.70 L 739.35 722.80 L 739.35 713.90 L 739.35 705.00 L 739.35 696.10 L 739.35 687.20 L 739.35 678.30 L 739.35 669.40 L 739.35 660.50 L 739.35 651.60 L 739.35 642.70 L 739.35 633.80 L 739.35 624.90 L 739.35 616.00 L 739.35 607.10 L 739.35 598.20 L 739.35 589.30 L 739.35 580.40 L 739.35 571.50 L 739.35 562.60 L 739.35 553.70 L 739.35 544.80 L 739.35 535.90 L 739.35 527.00 L 639.35 527.00 Z M 681.85 518.00 L 639.35 529.20 L 639.35 555.80 L 739.35 544.60 L 734.35 522.20 L 681.85 518.00 Z M 691.98 910.40 L 697.77 910.24 L 703.56 910.08 L 709.36 909.92 L 715.15 909.76 L 720.94 909.59 L 726.74 909.43 L 732.53 909.27 L 738.32 909.11 L 744.12 908.95 L 749.91 908.79 L 755.70 908.62 L 761.49 908.46 L 767.29 908.30 L 773.08 908.14 L 778.87 907.98 L 784.67 907.81 L 790.46 907.65 L 796.25 907.49 L 802.05 907.33 L 807.84 907.17 L 813.63 907.01 L 819.43 906.84 L 825.22 906.68 L 831.01 906.52 L 836.80 906.36 L 842.60 906.20 L 848.39 906.03 L 854.18 905.87 L 859.98 905.71 L 865.77 905.55 L 871.56 905.39 L 877.36 905.23 L 883.15 905.06 L 888.94 904.90 L 894.74 904.74 L 900.53 904.58 L 899.27 859.60 L 893.48 859.76 L 887.69 859.92 L 881.89 860.08 L 876.10 860.24 L 870.31 860.41 L 864.51 860.57 L 858.72 860.73 L 852.93 860.89 L 847.13 861.05 L 841.34 861.21 L 835.55 861.38 L 829.76 861.54 L 823.96 861.70 L 818.17 861.86 L 812.38 862.02 L 806.58 862.19 L 800.79 862.35 L 795.00 862.51 L 789.20 862.67 L 783.41 862.83 L 777.62 862.99 L 771.82 863.16 L 766.03 863.32 L 760.24 863.48 L 754.45 863.64 L 748.65 863.80 L 742.86 863.97 L 737.07 864.13 L 731.27 864.29 L 725.48 864.45 L 719.69 864.61 L 713.89 864.77 L 708.10 864.94 L 702.31 865.10 L 696.51 865.26 L 690.72 865.42 L 691.98 910.40 Z" fill="#000000" fill-rule="nonzero" stroke="none"/>
</svg>
