<?xml version="1.0" encoding="UTF-8"?>
<svg xmlns="http://www.w3.org/2000/svg"
     viewBox="0 0 1000 1000"
     width="1000" height="1000">
  <title>日 preview</title>
  <rect x="0" y="0" width="1000" height="1000" fill="none" stroke="#ddd" stroke-width="1"/>
  <path d="M 230.00 215.25 L 238.35 215.25 L 272.50 206.25 L 274.69 206.43 L 274.62 203.79 L 287.11 203.44 L 312.08 202.74 L 324.57 202.39 L 349.54 201.69 L 362.02 201.35 L 399.48 200.30 L 411.97 199.95 L 436.94 199.25 L 449.43 198.90 L 474.40 198.21 L 486.89 197.86 L 536.83 196.46 L 549.32 196.11 L 611.75 194.37 L 624.23 194.02 L 699.15 191.93 L 700.93 191.88 L 730.54 162.24 L 741.94 112.70 L 761.02 151.19 L 738.34 215.25 L 770.00 215.25 L 770.00 733.33 L 773.00 779.04 L 774.00 794.28 L 776.00 824.75 L 772.45 824.75 L 776.00 837.75 L 731.63 834.20 L 730.98 836.06 L 725.38 836.21 L 725.31 833.69 L 702.05 831.83 L 702.19 836.86 L 700.41 836.91 L 687.92 837.26 L 650.46 838.31 L 637.98 838.65 L 625.49 839.00 L 613.00 839.35 L 600.52 839.70 L 588.03 840.05 L 550.57 841.10 L 538.09 841.44 L 500.63 842.49 L 488.14 842.84 L 475.66 843.19 L 450.68 843.89 L 438.20 844.24 L 425.71 844.58 L 400.74 845.28 L 388.25 845.63 L 375.77 845.98 L 363.28 846.33 L 350.79 846.68 L 338.31 847.03 L 325.82 847.37 L 313.34 847.72 L 288.36 848.42 L 275.88 848.77 L 275.43 832.90 L 226.00 828.95 L 226.85 824.75 L 224.00 824.75 L 226.00 794.28 L 227.00 779.04 L 230.00 733.33 Z M 670.00 515.26 L 650.39 515.81 L 637.91 516.16 L 600.45 517.20 L 587.96 517.55 L 550.50 518.60 L 538.02 518.95 L 513.04 519.64 L 488.07 520.34 L 475.59 520.69 L 463.10 521.04 L 450.61 521.39 L 438.13 521.74 L 425.64 522.08 L 413.16 522.43 L 400.67 522.78 L 388.18 523.13 L 375.70 523.48 L 363.21 523.83 L 338.24 524.53 L 330.00 524.76 L 330.00 733.33 L 333.00 779.04 L 334.00 794.28 L 334.51 802.11 L 337.05 802.04 L 349.54 801.69 L 362.02 801.35 L 399.48 800.30 L 411.97 799.95 L 436.94 799.25 L 449.43 798.90 L 461.91 798.56 L 474.40 798.21 L 486.89 797.86 L 499.37 797.51 L 511.86 797.16 L 536.83 796.46 L 549.32 796.11 L 561.80 795.76 L 611.75 794.37 L 624.23 794.02 L 661.69 792.97 L 666.09 792.85 L 667.00 779.04 L 670.00 733.33 Z M 670.00 237.76 L 550.57 241.10 L 538.09 241.44 L 488.14 242.84 L 475.66 243.19 L 438.20 244.24 L 425.71 244.58 L 400.74 245.28 L 388.25 245.63 L 363.28 246.33 L 350.79 246.68 L 338.31 247.03 L 330.00 247.26 L 330.00 484.74 L 337.12 484.54 L 349.61 484.19 L 362.09 483.84 L 374.58 483.50 L 387.07 483.15 L 399.55 482.80 L 412.04 482.45 L 424.52 482.10 L 437.01 481.75 L 449.50 481.40 L 461.98 481.05 L 474.47 480.71 L 499.44 480.01 L 511.93 479.66 L 524.41 479.31 L 536.90 478.96 L 549.39 478.61 L 561.87 478.26 L 574.36 477.92 L 586.84 477.57 L 599.33 477.22 L 611.82 476.87 L 624.30 476.52 L 636.79 476.17 L 649.28 475.82 L 661.76 475.47 L 670.00 475.24 Z" fill="#000000" fill-rule="nonzero" stroke="none"/>
  <text x='20' y='980' font-size='16' fill='#666'>c=3 hits=10</text>
</svg>
